<svg width="50" height="48" viewBox="0 0 50 48" fill="none" xmlns="http://www.w3.org/2000/svg">
<g clip-path="url(#clip0_223_2037)">
<path d="M25 47.5062C38.8071 47.5062 50 36.8716 50 23.7531C50 10.6346 38.8071 0 25 0C11.1929 0 0 10.6346 0 23.7531C0 36.8716 11.1929 47.5062 25 47.5062Z" fill="#F53BA0"/>
<path d="M20.7412 28.7704C20.7412 29.767 20.9099 30.5918 21.2475 31.2447C21.8744 32.4475 23.0138 33.0489 24.6655 33.0489C25.6782 33.0489 26.5613 32.7196 27.3149 32.0609C28.0684 31.4022 28.4452 30.4543 28.4452 29.2172C28.4452 27.5791 27.7459 26.4852 26.3473 25.9353C25.5516 25.626 24.2978 25.4714 22.5858 25.4714V21.9662C24.2616 21.9432 25.431 21.7886 26.0942 21.5022C27.2395 21.0211 27.8122 20.0474 27.8122 18.5812C27.8122 17.6304 27.5198 16.8572 26.9351 16.2616C26.3504 15.6659 25.5275 15.3681 24.4665 15.3681C23.2489 15.3681 22.3537 15.7346 21.781 16.4677C21.2083 17.2009 20.934 18.1803 20.9582 19.4059H16.1477C16.1959 18.1688 16.4189 16.9947 16.8168 15.8835C17.2388 14.9098 17.9019 14.0107 18.8061 13.1859C19.4813 12.6017 20.283 12.1549 21.2113 11.8456C22.1397 11.5364 23.279 11.3817 24.6293 11.3817C27.137 11.3817 29.1595 11.9974 30.6967 13.2288C32.2338 14.4602 33.0024 16.1126 33.0024 18.186C33.0024 19.6522 32.5443 20.8894 31.628 21.8974C31.0493 22.5275 30.4465 22.957 29.8195 23.1861C30.2898 23.1861 30.9649 23.5699 31.845 24.3374C33.1592 25.4943 33.8162 27.0751 33.8162 29.0797C33.8162 31.1874 33.0477 33.0403 31.5105 34.6382C29.9733 36.2362 27.6977 37.0352 24.6835 37.0352C20.9702 37.0352 18.3902 35.884 16.9434 33.5815C16.1839 32.3558 15.7619 30.7521 15.6775 28.7704H20.7412Z" fill="white"/>
</g>
<defs>
<clipPath id="clip0_223_2037">
<rect width="50" height="47.5062" fill="white"/>
</clipPath>
</defs>
</svg>
