<svg width="41" height="59" viewBox="0 0 41 59" fill="none" xmlns="http://www.w3.org/2000/svg">
<path d="M39.9945 40.7825C39.9945 49.8779 32.6213 57.2512 23.5258 57.2512C14.4304 57.2512 7.05706 49.8779 7.05706 40.7825" stroke="#FF0000" stroke-width="2" stroke-miterlimit="10" stroke-linecap="round" stroke-linejoin="round"/>
<path d="M39.9946 39.9083V27.8988" stroke="#FF0000" stroke-width="2" stroke-miterlimit="10" stroke-linecap="round" stroke-linejoin="round"/>
<path d="M32.9966 27.6052C33.0777 25.6724 34.7103 24.1712 36.6431 24.2524C38.5759 24.3334 40.077 25.966 39.9959 27.8988" stroke="#FF0000" stroke-width="2" stroke-miterlimit="10" stroke-linecap="round" stroke-linejoin="round"/>
<path d="M25.9943 27.3721C26.0754 25.4393 27.708 23.9382 29.6408 24.0193C31.5736 24.1003 33.0748 25.7329 32.9936 27.6657" stroke="#FF0000" stroke-width="2" stroke-miterlimit="10" stroke-linecap="round" stroke-linejoin="round"/>
<path d="M25.9985 27.2381C26.1536 25.3098 27.8425 23.8724 29.7708 24.0275C31.6991 24.1826 33.1366 25.8715 32.9815 27.7999" stroke="#FF0000" stroke-width="2" stroke-miterlimit="10" stroke-linecap="round" stroke-linejoin="round"/>
<path d="M18.9512 26.8934C19.075 24.9629 20.7404 23.4983 22.6709 23.6221C24.6014 23.7459 26.0661 25.4113 25.9423 27.3418" stroke="#FF0000" stroke-width="2" stroke-miterlimit="10" stroke-linecap="round" stroke-linejoin="round"/>
<path d="M1.98408 29.1188C0.640122 27.7273 0.678653 25.5099 2.07015 24.1659C3.46164 22.8219 5.67908 22.8605 7.02304 24.252" stroke="#FF0000" stroke-width="2" stroke-miterlimit="10" stroke-linecap="round" stroke-linejoin="round"/>
<path d="M11.9457 4.50354C11.9457 2.56902 13.5139 1.00079 15.4484 1.00079C17.3829 1.00079 18.9512 2.56902 18.9512 4.50354" stroke="#FF0000" stroke-width="2" stroke-miterlimit="10" stroke-linecap="round" stroke-linejoin="round"/>
<path d="M18.9512 26.8563V4.50354" stroke="#FF0000" stroke-width="2" stroke-miterlimit="10" stroke-linecap="round" stroke-linejoin="round"/>
<path d="M11.9457 4.50354V32.316" stroke="#FF0000" stroke-width="2" stroke-miterlimit="10" stroke-linecap="round" stroke-linejoin="round"/>
<path d="M8.98264 26.4674L7.0231 24.252" stroke="#FF0000" stroke-width="2" stroke-miterlimit="10" stroke-linecap="round" stroke-linejoin="round"/>
<path d="M3.75319 31.4403C5.70733 33.5859 7.12925 36.6121 7.05709 40.9696" stroke="#FF0000" stroke-width="2" stroke-miterlimit="10" stroke-linecap="round" stroke-linejoin="round"/>
<path d="M1.98398 29.1188L3.80681 31.5009" stroke="#FF0000" stroke-width="2" stroke-miterlimit="10" stroke-linecap="round" stroke-linejoin="round"/>
</svg>
