<svg width="312" height="312" viewBox="0 0 312 312" fill="none" xmlns="http://www.w3.org/2000/svg">
<path d="M155.917 301.828C236.501 301.828 301.828 236.501 301.828 155.917C301.828 75.332 236.501 10.0053 155.917 10.0053C75.332 10.0053 10.0053 75.332 10.0053 155.917C10.0053 236.501 75.332 301.828 155.917 301.828Z" fill="white"/>
<path d="M301.995 156.083C301.995 236.668 236.668 301.995 156.083 301.995" stroke="#00AEAE" stroke-width="20" stroke-linecap="round" stroke-linejoin="round"/>
<path d="M301.995 155.917C301.995 75.3321 236.668 10.0053 156.083 10.0053" stroke="#00AEAE" stroke-width="20" stroke-linecap="round" stroke-linejoin="round"/>
<path d="M10.0053 155.917C10.0053 75.332 75.332 10.0053 155.917 10.0053" stroke="#00AEAE" stroke-width="20" stroke-linecap="round" stroke-linejoin="round"/>
<path d="M155.917 301.995C75.332 301.995 10.0053 236.668 10.0053 156.083" stroke="#00AEAE" stroke-width="20" stroke-linecap="round" stroke-linejoin="round"/>
</svg>
