<svg width="50" height="500" viewBox="0 0 50 500" fill="none" xmlns="http://www.w3.org/2000/svg">
<path d="M17.6458 12.3958C18.6458 11.8125 19.7292 11.3333 20.8333 11V8.33333C20.8333 6.04166 22.6458 4.16666 24.9375 4.10416C27.3542 4.16666 29.1667 6.04166 29.1667 8.33333V11C30.2708 11.3542 31.3542 11.8125 32.3542 12.3958L29.0208 16.8125H20.9792L17.6458 12.3958ZM39.5833 25C39.5833 26.0417 39.4792 26.9792 39.2917 27.9167L34.0208 26.2917L31.5417 18.6667L34.875 14.2708C35.7708 15.1042 36.5625 16.0417 37.25 17.0833C38.8958 16.9375 40.4792 17.1875 41.8958 17.8958C44.0417 19 45.5 21.1042 45.8333 23.5L39.5833 24.25V25ZM10.4167 25C10.4167 24.75 10.4167 24.5 10.4167 24.2708L4.16666 23.5C4.49999 21.1042 5.95832 19 8.10416 17.8958C9.52082 17.1875 11.125 16.9375 12.6667 17.2083C13.3542 16.1458 14.1458 15.1667 15.0833 14.3125L18.4583 18.6458L15.9792 26.2917L10.7083 27.9167C10.5208 26.9792 10.4167 26.0417 10.4167 25V25ZM21.3333 19.9375H28.6667L30.9375 26.9375L25 31.25L19.0625 26.9375L21.3333 19.9375ZM16.9375 29.2708L23.4375 33.9792V39.5C22.25 39.375 21.1042 39.1042 20.0417 38.7083L17.4792 44.4583C15.2708 43.4792 13.6875 41.4583 13.2708 39.0833C12.9792 37.5 13.2292 35.9167 13.9375 34.5C13 33.4167 12.2292 32.2083 11.6458 30.875L16.9375 29.2708ZM33.0625 29.2708L38.3542 30.875C37.7708 32.2083 37 33.4167 36.0625 34.5C36.7708 35.9167 37.0208 37.5 36.75 39.0833C36.3125 41.4583 34.7292 43.4792 32.5208 44.4583L29.9792 38.7083C28.875 39.1042 27.7708 39.4583 26.5625 39.5833V33.9792L33.0625 29.2708Z" fill="#008C6E"/>
<path d="M25.1784 111.864L23.3897 112.344L22.0438 109.109L24.727 108.391L25.1784 111.864Z" stroke="#008C6E" stroke-width="2" stroke-miterlimit="10" stroke-linecap="round" stroke-linejoin="round"/>
<path d="M26.0318 115.048L23.7522 115.45L22.5793 112.131L25.9988 111.528L26.0318 115.048Z" stroke="#008C6E" stroke-width="2" stroke-miterlimit="10" stroke-linecap="round" stroke-linejoin="round"/>
<path d="M3.81946 128.194C5.02911 126.785 6.8321 125.121 8.68057 125.417C10.6861 125.738 10.974 127.836 12.8472 128.194C14.9938 128.605 16.2826 125.748 19.0972 125.417C21.6047 125.122 21.9143 127.091 23.7269 127.879C24.442 128.19 25.0791 128.193 25.3472 128.194C27.8901 128.207 28.8161 125.698 30.9028 125.417C32.5926 125.189 32.9384 127.024 35.0695 127.5C37.0798 127.949 38.5739 125.71 40.9722 125.417C42.2116 125.265 44.4445 126.111 45.8334 128.194" stroke="#008C6E" stroke-width="2" stroke-miterlimit="10" stroke-linecap="round" stroke-linejoin="round"/>
<path d="M28.8376 120.731C29.4112 120.63 29.8611 120.556 30.5556 120.556C34.0278 120.556 37.1307 123.127 38.1945 124.722" stroke="#008C6E" stroke-width="2" stroke-miterlimit="10" stroke-linecap="round" stroke-linejoin="round"/>
<path d="M12.5 125.417C13.5291 123.358 15.8867 121.25 18.75 121.25H21.3113" stroke="#008C6E" stroke-width="2" stroke-miterlimit="10" stroke-linecap="round" stroke-linejoin="round"/>
<path d="M9.72224 112.917C9.68203 111.965 9.74433 109.896 11.1111 108.056C13.2012 105.241 16.9756 104.801 19.4445 105.278C20.339 105.45 21.0495 105.741 21.5278 105.972" stroke="#008C6E" stroke-width="2" stroke-miterlimit="10" stroke-linecap="round" stroke-linejoin="round"/>
<path d="M26.6863 118.52L23.919 118.762L22.9246 115.363L27.0754 115L26.6863 118.52Z" stroke="#008C6E" stroke-width="2" stroke-miterlimit="10" stroke-linecap="round" stroke-linejoin="round"/>
<path d="M24.3056 103.889C24.6014 103.182 25.3712 101.618 27.0834 100.417C29.2549 98.8928 31.5499 98.986 32.6389 99.0278C34.9958 99.1181 36.7197 100.005 37.5 100.417C38.411 100.898 39.1076 101.413 39.5834 101.806" stroke="#008C6E" stroke-width="2" stroke-miterlimit="10" stroke-linecap="round" stroke-linejoin="round"/>
<path d="M22.3053 103.956C21.405 103.358 19.9258 102.563 17.9608 102.275C17.0644 102.144 14.0375 101.82 11.1127 103.621C10.2269 104.166 9.58625 104.761 9.16959 105.2" stroke="#008C6E" stroke-width="2" stroke-miterlimit="10" stroke-linecap="round" stroke-linejoin="round"/>
<path d="M30.5556 97.6389C30.0605 97.3695 29.0692 96.9194 27.7778 96.9444C27.2772 96.9541 24.8807 97.0716 23.6111 99.0278C22.8765 100.16 22.8856 101.331 22.9167 101.806" stroke="#008C6E" stroke-width="2" stroke-miterlimit="10" stroke-linecap="round" stroke-linejoin="round"/>
<path d="M24.3056 105.972C24.9436 105.677 26.1828 105.209 27.7778 105.278C30.4695 105.393 32.2092 106.952 32.6389 107.361C33.9876 108.645 34.5148 110.104 34.7222 110.833" stroke="#008C6E" stroke-width="2" stroke-miterlimit="10" stroke-linecap="round" stroke-linejoin="round"/>
<path d="M20.1076 109.465C20.0222 109.116 19.8452 108.59 19.4548 108.056C19.2271 107.744 18.986 107.51 18.7812 107.341" stroke="#008C6E" stroke-width="2" stroke-miterlimit="10" stroke-linecap="round" stroke-linejoin="round"/>
<path d="M17.4628 110.063C17.3326 109.729 17.0885 109.231 16.6316 108.752C16.3652 108.473 16.0956 108.272 15.8706 108.131" stroke="#008C6E" stroke-width="2" stroke-miterlimit="10" stroke-linecap="round" stroke-linejoin="round"/>
<path d="M15.4343 111.404C15.2849 111.078 15.0122 110.595 14.5282 110.143C14.246 109.88 13.9652 109.696 13.7324 109.568" stroke="#008C6E" stroke-width="2" stroke-miterlimit="10" stroke-linecap="round" stroke-linejoin="round"/>
<path d="M14.0159 113.514C13.8769 113.183 13.6197 112.692 13.1502 112.225C12.8765 111.953 12.6017 111.76 12.373 111.625" stroke="#008C6E" stroke-width="2" stroke-miterlimit="10" stroke-linecap="round" stroke-linejoin="round"/>
<path d="M29.7536 103.5C29.7543 103.141 29.8022 102.588 30.0554 101.977C30.203 101.62 30.3821 101.336 30.541 101.123" stroke="#008C6E" stroke-width="2" stroke-miterlimit="10" stroke-linecap="round" stroke-linejoin="round"/>
<path d="M32.4651 103.457C32.5126 103.101 32.6322 102.56 32.963 101.986C33.156 101.652 33.3706 101.394 33.556 101.203" stroke="#008C6E" stroke-width="2" stroke-miterlimit="10" stroke-linecap="round" stroke-linejoin="round"/>
<path d="M34.7528 104.281C34.8209 103.929 34.9718 103.395 35.3355 102.842C35.5476 102.519 35.7769 102.274 35.973 102.095" stroke="#008C6E" stroke-width="2" stroke-miterlimit="10" stroke-linecap="round" stroke-linejoin="round"/>
<path d="M36.6292 105.996C36.6862 105.642 36.8201 105.104 37.166 104.539C37.3679 104.21 37.5892 103.958 37.7796 103.773" stroke="#008C6E" stroke-width="2" stroke-miterlimit="10" stroke-linecap="round" stroke-linejoin="round"/>
<path d="M26.3851 122.053H23.6073L22.9129 118.581H27.0795L26.3851 122.053Z" stroke="#008C6E" stroke-width="2" stroke-miterlimit="10" stroke-linecap="round" stroke-linejoin="round"/>
<path d="M27.0894 108.793C27.3002 108.503 27.6627 108.083 28.2262 107.736C28.5547 107.533 28.8663 107.408 29.1198 107.328" stroke="#008C6E" stroke-width="2" stroke-miterlimit="10" stroke-linecap="round" stroke-linejoin="round"/>
<path d="M29.312 110.347C29.559 110.086 29.9731 109.717 30.5771 109.447C30.9292 109.289 31.2545 109.205 31.5163 109.159" stroke="#008C6E" stroke-width="2" stroke-miterlimit="10" stroke-linecap="round" stroke-linejoin="round"/>
<path d="M30.6834 112.355C30.9451 112.109 31.3801 111.765 31.9988 111.53C32.3596 111.393 32.6892 111.328 32.9531 111.298" stroke="#008C6E" stroke-width="2" stroke-miterlimit="10" stroke-linecap="round" stroke-linejoin="round"/>
<path d="M7.96243 187.985H1.74521" stroke="#008C6E" stroke-width="2" stroke-miterlimit="10" stroke-linecap="round" stroke-linejoin="round"/>
<path d="M7.96265 187.985L7.96275 181.768" stroke="#008C6E" stroke-width="2" stroke-miterlimit="10" stroke-linecap="round" stroke-linejoin="round"/>
<path d="M10.7685 190.797H4.55124" stroke="#008C6E" stroke-width="2" stroke-miterlimit="10" stroke-linecap="round" stroke-linejoin="round"/>
<path d="M10.7699 190.795V184.578" stroke="#008C6E" stroke-width="2" stroke-miterlimit="10" stroke-linecap="round" stroke-linejoin="round"/>
<path d="M27.4212 207.406L5.1929 185.221" stroke="#008C6E" stroke-width="2" stroke-miterlimit="10" stroke-linecap="round" stroke-linejoin="round"/>
<path d="M15.2562 191.352C18.6307 188.8 22.8658 187.261 27.4224 187.261C38.5448 187.261 47.5612 196.277 47.5612 207.399C47.5612 218.522 38.5448 227.538 27.4224 227.538C16.2999 227.538 7.28348 218.522 7.28348 207.399C7.28348 202.853 8.78994 198.659 11.3309 195.288" stroke="#008C6E" stroke-width="2" stroke-miterlimit="10" stroke-linecap="round" stroke-linejoin="round"/>
<path d="M18.2338 194.333C20.8325 192.502 24.0019 191.427 27.4224 191.427C36.2435 191.427 43.3946 198.578 43.3946 207.399C43.3946 216.221 36.2435 223.372 27.4224 223.372C18.6012 223.372 11.4501 216.221 11.4501 207.399C11.4501 204.017 12.5014 200.881 14.295 198.298" stroke="#008C6E" stroke-width="2" stroke-miterlimit="10" stroke-linecap="round" stroke-linejoin="round"/>
<path d="M22.25 198.356C23.774 197.482 25.5399 196.983 27.4224 196.983C33.1754 196.983 37.839 201.646 37.839 207.399C37.839 213.152 33.1754 217.816 27.4224 217.816C21.6694 217.816 17.0057 213.152 17.0057 207.399C17.0057 205.583 17.513 203.839 18.3306 202.352" stroke="#008C6E" stroke-width="2" stroke-miterlimit="10" stroke-linecap="round" stroke-linejoin="round"/>
<path d="M27.8319 203.941C29.5453 204.154 30.8714 205.615 30.8714 207.386C30.8714 209.304 29.3168 210.858 27.3992 210.858C25.6753 210.858 24.2449 209.602 23.9733 207.955" stroke="#008C6E" stroke-width="2" stroke-miterlimit="10" stroke-linecap="round" stroke-linejoin="round"/>
<path d="M24.8455 200.949C25.6423 200.63 26.5119 200.455 27.4224 200.455C31.2576 200.455 34.3668 203.564 34.3668 207.399C34.3668 211.235 31.2576 214.344 27.4224 214.344C23.5871 214.344 20.4779 211.235 20.4779 207.399C20.4779 206.528 20.6529 205.682 20.9542 204.907" stroke="#008C6E" stroke-width="2" stroke-miterlimit="10" stroke-linecap="round" stroke-linejoin="round"/>
<path d="M27.2727 279.091C22.2364 279.091 18.1818 283.145 18.1818 288.182C18.1818 291.552 20.0166 294.451 22.7273 296.021V315.455L27.2727 310.909L31.8182 315.455V296.021C34.5289 294.451 36.3636 291.552 36.3636 288.182C36.3636 283.145 32.3091 279.091 27.2727 279.091ZM27.2727 281.364C31.05 281.364 34.0909 284.405 34.0909 288.182C34.0909 291.959 31.05 295 27.2727 295C23.4955 295 20.4546 291.959 20.4546 288.182C20.4546 284.405 23.4955 281.364 27.2727 281.364ZM27.2727 283.636L25.8656 286.628L22.7273 287.108L25 289.438L24.4629 292.727L27.2727 291.174L30.0826 292.727L29.5455 289.438L31.8182 287.108L28.6799 286.628L27.2727 283.636Z" fill="#008C6E"/>
<path d="M14.0625 370.938C8.90503 370.938 4.6875 375.155 4.6875 380.312C4.6875 383.413 6.21338 386.172 8.54492 387.881C4.42505 389.926 1.5625 394.161 1.5625 399.062H4.6875C4.6875 393.868 8.86841 389.688 14.0625 389.688C19.2566 389.688 23.4375 393.868 23.4375 399.062H26.5625C26.5625 393.868 30.7434 389.688 35.9375 389.688C41.1316 389.688 45.3125 393.868 45.3125 399.062H48.4375C48.4375 394.161 45.575 389.926 41.4551 387.881C43.7866 386.172 45.3125 383.413 45.3125 380.312C45.3125 375.155 41.095 370.938 35.9375 370.938C30.78 370.938 26.5625 375.155 26.5625 380.312C26.5625 383.413 28.0884 386.172 30.4199 387.881C28.1433 389.01 26.2329 390.792 25 393.008C23.7671 390.792 21.8567 389.01 19.5801 387.881C21.9116 386.172 23.4375 383.413 23.4375 380.312C23.4375 375.155 19.22 370.938 14.0625 370.938ZM14.0625 374.062C17.5354 374.062 20.3125 376.84 20.3125 380.312C20.3125 383.785 17.5354 386.562 14.0625 386.562C10.5896 386.562 7.8125 383.785 7.8125 380.312C7.8125 376.84 10.5896 374.062 14.0625 374.062ZM35.9375 374.062C39.4104 374.062 42.1875 376.84 42.1875 380.312C42.1875 383.785 39.4104 386.562 35.9375 386.562C32.4646 386.562 29.6875 383.785 29.6875 380.312C29.6875 376.84 32.4646 374.062 35.9375 374.062Z" fill="#008C6E"/>
<path d="M46.8992 470.266L42.889 469.377C42.5765 468.377 42.1671 467.42 41.6976 466.499L43.8671 462.884C44.6772 461.59 45.0866 459.685 43.8671 458.465L41.6562 456.256C40.4366 455.035 38.3773 455.255 37.1335 456.117L33.6164 458.358C32.7038 457.884 31.7499 457.479 30.7585 457.159L29.8585 453.1C29.5898 451.612 28.2882 450 26.5625 450H23.4375C21.7117 450 20.6539 451.636 20.3125 453.125L19.3101 457.135C18.2515 457.473 17.2351 457.904 16.2664 458.415L12.6609 456.119C11.4179 455.256 9.35776 455.037 8.13823 456.257L5.92808 458.466C4.70776 459.687 5.11714 461.591 5.92808 462.886L8.21089 466.691C7.78281 467.553 7.40308 468.445 7.11011 469.377L3.10073 470.267C1.61167 470.535 0 471.837 0 473.562V476.687C0 478.413 1.63594 479.471 3.125 479.812L7.18516 480.827C7.46567 481.688 7.81641 482.515 8.21328 483.316L5.92812 487.125C5.11802 488.419 4.70864 490.323 5.92812 491.544L8.13906 493.753C9.35859 494.974 11.418 494.754 12.6617 493.892L16.275 491.59C17.2492 492.104 18.2711 492.539 19.3367 492.876L20.3367 496.875C20.6789 498.364 21.7359 500 23.4617 500H26.5867C28.3125 500 29.614 498.388 29.8828 496.899L30.7843 492.83C31.7656 492.513 32.707 492.112 33.6085 491.645L37.1335 493.891C38.3773 494.754 40.4375 494.973 41.6562 493.752L43.8672 491.543C45.0867 490.322 44.6773 488.418 43.8672 487.124L41.6961 483.505C42.1329 482.647 42.511 481.755 42.8149 480.827L46.875 479.812C48.3641 479.47 50 478.413 50 476.687V473.562C50 471.837 48.3891 470.535 46.8992 470.266V470.266ZM46.8765 476.467C46.7437 476.562 46.4936 476.694 46.1764 476.767L40.3827 478.214L39.8452 479.856C39.6022 480.596 39.2882 481.347 38.9116 482.088L38.1272 483.629L41.1882 488.733C41.3835 489.046 41.4749 489.325 41.5022 489.49L39.4468 491.543C39.2483 491.48 39.0226 491.399 38.914 491.325L33.7702 488.044L32.171 488.872C31.4007 489.272 30.61 489.603 29.8225 489.858L28.1194 490.408L26.8319 496.225C26.7725 496.536 26.6061 496.787 26.492 496.876H23.6795C23.5843 496.744 23.4538 496.494 23.3811 496.177L21.9429 490.425L20.2781 489.897C19.4202 489.626 18.5648 489.266 17.732 488.827L16.125 487.979L10.9804 491.258C10.7703 491.4 10.5453 491.48 10.3414 491.48L8.29214 489.486C8.31948 489.324 8.40464 489.057 8.57495 488.784L11.771 483.459L11.0109 481.929C10.6562 481.207 10.375 480.53 10.1562 479.858L9.61948 478.215L3.88271 476.78C3.52178 476.698 3.26084 476.564 3.1249 476.468V473.562C3.12646 473.563 3.12881 473.564 3.13198 473.564C3.18433 473.564 3.44136 473.381 3.65542 473.342L9.54995 472.036L10.0913 470.314C10.3116 469.612 10.6124 468.881 11.0101 468.079L11.7702 466.547L8.60776 461.278C8.41167 460.964 8.32104 460.684 8.2937 460.52L10.3484 458.466C10.5476 458.53 10.7718 458.611 10.8796 458.685L16.1195 462.025L17.725 461.178C18.5492 460.744 19.4015 460.385 20.2593 460.112L21.9203 459.583L23.3452 453.882C23.4281 453.521 23.5608 453.26 23.6577 453.124H26.5625C26.5414 453.156 26.7422 453.429 26.7835 453.655L28.096 459.583L29.7976 460.133C30.5953 460.391 31.3968 460.726 32.1765 461.131L33.7757 461.962L38.8125 458.753C39.0234 458.609 39.2492 458.53 39.4515 458.53L41.5023 460.523C41.475 460.685 41.389 460.953 41.2187 461.226L38.1257 466.377L38.9148 467.921C39.3406 468.754 39.6656 469.535 39.907 470.31L40.4468 472.036L46.2227 473.318C46.5719 473.383 46.8438 473.584 46.9016 473.694L46.8765 476.467ZM25.021 465.609C19.8319 465.609 15.6101 469.822 15.6101 475C15.6101 480.176 19.8319 484.39 25.021 484.39C30.2101 484.39 34.4319 480.176 34.4319 475C34.4319 469.822 30.2101 465.609 25.021 465.609V465.609ZM24.9999 481.25C21.5538 481.25 18.7499 478.446 18.7499 475C18.7499 471.553 21.5538 468.75 24.9999 468.75C28.4468 468.75 31.2499 471.553 31.2499 475C31.2499 478.446 28.446 481.25 24.9999 481.25Z" fill="#008C6E"/>
</svg>
