<svg width="104" height="104" viewBox="0 0 104 104" fill="none" xmlns="http://www.w3.org/2000/svg">
<path d="M0 52C0 23.2812 23.2812 0 52 0V0C80.7188 0 104 23.2812 104 52V52C104 80.7188 80.7188 104 52 104V104C23.2812 104 0 80.7188 0 52V52Z" fill="#FFECD6"/>
<g opacity="0.01">
<rect width="1" height="1" rx="0.5" transform="matrix(1 0 0 -1 52 52)" fill="white"/>
</g>
<g clip-path="url(#clip0_223_2029)">
<path d="M47.9441 77.3967C60.434 77.3967 70.5592 66.3221 70.5592 52.6609C70.5592 38.9997 60.434 27.9251 47.9441 27.9251C35.4541 27.9251 25.329 38.9997 25.329 52.6609C25.329 66.3221 35.4541 77.3967 47.9441 77.3967Z" fill="#FF7A00"/>
<path d="M40.7704 60.7487C41.4357 59.019 43.0062 57.188 45.4819 55.2555C47.6304 53.5735 49.0209 52.3686 49.6535 51.641C50.6241 50.5077 51.1095 49.2672 51.1095 47.9192C51.1095 46.8217 50.8313 45.9091 50.2752 45.1815C49.7189 44.4538 48.9228 44.09 47.8867 44.09C46.4689 44.09 45.5037 44.6685 44.9911 45.8256C44.6966 46.4937 44.5221 47.5553 44.4676 49.0107H39.9361C40.0124 46.8038 40.3778 45.0205 41.0321 43.6605C42.2755 41.072 44.4839 39.7777 47.6576 39.7777C50.1661 39.7777 52.1619 40.5382 53.6452 42.0591C55.1284 43.58 55.87 45.593 55.87 48.0981C55.87 50.0186 55.3465 51.7245 54.2995 53.2156C53.6125 54.2057 52.4837 55.3091 50.9132 56.5259L49.0482 57.9753C47.8812 58.8819 47.0824 59.538 46.6516 59.9435C46.2208 60.3491 45.8581 60.8203 45.5637 61.3571H55.9191V65.8484H39.6743C39.7179 63.9874 40.0833 62.2875 40.7704 60.7487V60.7487Z" fill="white"/>
</g>
<defs>
<clipPath id="clip0_223_2029">
<rect width="45.2302" height="49.4717" fill="white" transform="translate(25.329 27.9251)"/>
</clipPath>
</defs>
</svg>
